FFmpeg version SVN-r25716, Copyright (c) 2000-2010 the FFmpeg developers  built on Nov 10 2010 12:23:18 with gcc 4.1.2 20080704 (Red Hat 4.1.2-48)  configuration: --enable-libmp3lame --enable-shared --disable-mmx --arch=x86_64  libavutil     50.33. 0 / 50.33. 0  libavcore      0.12. 1 /  0.12. 1  libavcodec    52.94. 4 / 52.94. 4  libavformat   52.84. 0 / 52.84. 0  libavdevice   52. 2. 2 / 52. 2. 2  libavfilter    1.59. 0 /  1.59. 0  libswscale     0.12. 0 /  0.12. 0Input #0, avi, from '/RAID10/data/converted_video_files/47388.avi':  Duration: 00:00:01.55, start: 0.000000, bitrate: 21040 kb/s    Stream #0.0: Video: msvideo1, rgb555le, 1024x1024, 20 tbr, 20 tbn, 20 tbc[buffer @ 0x6148a60] w:1024 h:1024 pixfmt:rgb555le[ffsink @ 0x6182e00] auto-inserting filter 'auto-inserted scaler 0' between the filter 'src' and the filter 'out'[scale @ 0x61830c0] w:1024 h:1024 fmt:rgb555le -> w:1024 h:1024 fmt:yuv420p flags:0x4Output #0, flv, to '/RAID10/data/converted_video_files/47388.flv':  Metadata:    encoder         : Lavf52.84.0    Stream #0.0: Video: flv, yuv420p, 1024x1024, q=2-31, 600 kb/s, 1k tbn, 24 tbcStream mapping:  Stream #0.0 -> #0.0Press [q] to stop encodingframe=    9 fps=  0 q=13.9 size=     350kB time=0.46 bitrate=6240.6kbits/s    frame=   18 fps= 15 q=31.0 size=     394kB time=0.88 bitrate=3690.1kbits/s    frame=   28 fps= 17 q=30.7 size=     429kB time=1.38 bitrate=2555.2kbits/s    frame=   31 fps= 16 q=31.0 Lsize=     458kB time=1.54 bitrate=2434.8kbits/s    video:458kB audio:0kB global headers:0kB muxing overhead 0.150663%